:SAMPLES-PER-SECOND 30
:FULLY-SPECIFIED
:DEGREES
243
root  -75.5031 33.5616 -44.8385 19.7482 70.5332 2.5768
RightUpLeg  -29.5104 -5.94954 -1.41183
RightLeg  32.0729 -3.09632 -1.68275
RightFoot  -3.36506 -0.00527353 0.287532
RightToes  -32.1801 -0.159218 -0.266829
Spine  6.48989 -0.652323 -0.247039
Spine1  10.524 -1.37199 -0.446168
HEad  -7.34178 -0.28631 7.46031
LeftShoulder1  0 -2.42657e-020 -4.95415e-022
LeftArm  -18.5232 -34.3732 -55.0249
LeftForeArm  75.9017 -75.2841 -42.5109
LeftHand  -0.649048 -5.67818 12.6768
RightShoulder  0 2.42657e-020 1.07489e-018
RightArm  -5.3492 33.322 61.0502
RightForeArm  121.152 79.6161 75.7826
RightHand  -6.10369 17.0684 -38.7626
LeftUpLeg  -16.4761 0.380558 6.49393
LeftLeg  15.9297 -7.22101 -1.56488
LeftFoot  -3.0531 0.00851673 0.36823
LeftToes  -22.4863 9.37529e-007 1.1992e-007
244
root  -75.3993 33.5367 -44.7565 19.4132 70.4725 2.38728
RightUpLeg  -29.4416 -6.09564 -1.29417
RightLeg  32.5838 -2.85434 -1.58591
RightFoot  -3.47477 -0.00449043 0.286353
RightToes  -32.6485 -0.162578 -0.268034
Spine  6.56655 -0.640975 -0.165111
Spine1  10.7705 -1.30907 -0.39253
HEad  -8.04955 -0.0572524 7.73445
LeftShoulder1  0 -2.42657e-020 -4.95415e-022
LeftArm  -15.6243 -28.216 -57.98
LeftForeArm  84.0863 -77.0425 -50.5199
LeftHand  -0.628613 -5.63188 12.3727
RightShoulder  0 2.42657e-020 1.07489e-018
RightArm  -1.6583 27.4467 62.393
RightForeArm  126.709 79.81 81.3014
RightHand  -6.35973 17.7192 -38.8769
LeftUpLeg  -16.8061 0.476621 6.62142
LeftLeg  17.2839 -7.26642 -1.75498
LeftFoot  -3.27299 0.0112797 0.394799
LeftToes  -23.0967 9.37529e-007 1.1992e-007
245
root  -75.3248 33.5337 -44.6733 19.2318 70.4654 2.18503
RightUpLeg  -29.2592 -6.04099 -1.2069
RightLeg  32.567 -2.76364 -1.53489
RightFoot  -3.59062 -0.00421823 0.288742
RightToes  -32.6129 -0.164102 -0.26885
Spine  6.60522 -0.576605 -0.0705716
Spine1  10.9822 -1.10591 -0.384179
HEad  -8.94286 -0.114249 8.04985
LeftShoulder1  0 -2.42657e-020 -4.95415e-022
LeftArm  -12.9231 -22.4774 -61.3266
LeftForeArm  86.4151 -77.6019 -53.9175
LeftHand  -0.622574 -5.57889 12.3706
RightShoulder  0 2.42657e-020 1.07489e-018
RightArm  0.363782 21.2134 63.7798
RightForeArm  124.181 79.7445 79.1129
RightHand  -6.23891 18.4905 -36.6638
LeftUpLeg  -17.4068 0.281455 6.84574
LeftLeg  18.7169 -7.20015 -1.93037
LeftFoot  -3.25639 0.0109216 0.384214
LeftToes  -24.1246 9.37529e-007 1.1992e-007
246
root  -75.2665 33.541 -44.6018 19.5856 70.6171 2.45139
RightUpLeg  -29.0163 -6.16631 -1.20443
RightLeg  32.243 -2.72399 -1.49267
RightFoot  -3.74186 -0.00430067 0.291679
RightToes  -32.5758 -0.164688 -0.269512
Spine  6.56261 -0.553626 -0.0359854
Spine1  11.059 -1.02456 -0.410184
HEad  -9.77689 -0.256748 8.42749
LeftShoulder1  0 -2.42657e-020 -4.95415e-022
LeftArm  -10.4199 -16.5975 -64.6163
LeftForeArm  86.6052 -77.6466 -54.2146
LeftHand  -0.629008 -5.59897 12.4552
RightShoulder  0 2.42657e-020 1.07489e-018
RightArm  1.00867 14.8086 65.9315
RightForeArm  110.087 79.1737 68.2927
RightHand  -5.86229 18.7597 -34.0843
LeftUpLeg  -18.0238 -1.02954 7.00872
LeftLeg  19.7275 -6.19106 -1.77889
LeftFoot  -2.85073 0.0068997 0.277282
LeftToes  -25.922 9.37529e-007 1.1992e-007
247
root  -75.2195 33.5748 -44.5139 19.7883 70.8362 2.45329
RightUpLeg  -28.8914 -6.11493 -1.04467
RightLeg  31.9239 -3.0033 -1.62238
RightFoot  -3.61005 -0.00461815 0.29271
RightToes  -32.5885 -0.164879 -0.270254
Spine  6.49907 -0.575916 0.00580123
Spine1  11.1269 -1.04413 -0.412103
HEad  -10.4093 -0.156337 8.76888
LeftShoulder1  0 -2.42657e-020 -4.95415e-022
LeftArm  -8.02877 -11.1775 -67.3142
LeftForeArm  84.1016 -77.3649 -52.4209
LeftHand  -0.611117 -5.38834 12.5778
RightShoulder  0 2.42657e-020 1.07489e-018
RightArm  0.342548 8.70219 68.4926
RightForeArm  93.6618 77.575 53.7004
RightHand  -5.51279 18.5879 -32.4284
LeftUpLeg  -18.5224 -1.56054 7.18851
LeftLeg  20.3827 -5.79882 -1.73873
LeftFoot  -2.55362 0.00483095 0.216739
LeftToes  -26.1621 9.37529e-007 1.1992e-007
248
root  -75.1612 33.6145 -44.4407 19.9912 71.0963 2.44858
RightUpLeg  -28.987 -6.40864 -0.879783
RightLeg  31.9838 -2.95094 -1.59836
RightFoot  -3.33097 -0.00330085 0.262212
RightToes  -32.8564 -0.165218 -0.271314
Spine  6.39333 -0.697431 0.101207
Spine1  11.1249 -1.27355 -0.308741
HEad  -10.7647 0.200253 8.85885
LeftShoulder1  0 -2.42657e-020 -4.95415e-022
LeftArm  -6.72861 -5.71234 -70.243
LeftForeArm  79.9391 -76.6039 -48.22
LeftHand  -0.565543 -5.33425 11.7405
RightShoulder  0 2.42657e-020 1.07489e-018
RightArm  -1.25068 3.25356 70.9539
RightForeArm  80.1047 74.8098 40.7948
RightHand  -5.09738 18.2136 -30.6789
LeftUpLeg  -18.7971 -2.09613 7.34838
LeftLeg  20.5928 -5.44497 -1.65493
LeftFoot  -2.18233 0.00295149 0.154951
LeftToes  -26.3677 9.37529e-007 1.1992e-007
249
root  -75.0855 33.6374 -44.3769 20.4246 71.4539 2.75517
RightUpLeg  -28.9786 -6.86716 -0.821428
RightLeg  32.0762 -2.82431 -1.53633
RightFoot  -3.253 -0.00270805 0.236215
RightToes  -33.2688 -0.166247 -0.272926
Spine  6.30797 -0.978975 0.194131
Spine1  11.1555 -1.86575 -0.134917
HEad  -10.8736 0.732989 8.77978
LeftShoulder1  0 -2.42657e-020 -4.95415e-022
LeftArm  -5.83379 -0.643083 -72.5596
LeftForeArm  76.6047 -75.943 -45.1655
LeftHand  -0.551967 -5.35486 11.4066
RightShoulder  0 2.42657e-020 1.07489e-018
RightArm  -3.31026 -1.34915 73.2834
RightForeArm  69.5842 71.0813 31.1342
RightHand  -4.99242 18.7455 -29.229
LeftUpLeg  -18.9527 -2.46861 7.38173
LeftLeg  20.693 -5.31966 -1.6272
LeftFoot  -1.92709 0.00391546 0.115545
LeftToes  -26.3704 9.37529e-007 1.1992e-007
250
root  -75.0054 33.6381 -44.2953 20.0819 71.7088 2.3481
RightUpLeg  -28.9949 -6.86026 -0.570435
RightLeg  32.413 -3.05278 -1.68314
RightFoot  -3.19169 -0.00403677 0.232705
RightToes  -33.4671 -0.16851 -0.275326
Spine  6.18351 -1.09778 0.296769
Spine1  11.1015 -2.12151 0.0590466
HEad  -10.6057 1.21268 8.95831
LeftShoulder1  0 -2.42657e-020 -4.95415e-022
LeftArm  -4.33413 2.97493 -74.4851
LeftForeArm  71.0262 -74.4888 -39.7518
LeftHand  -0.568123 -5.38348 11.6847
RightShoulder  0 2.42657e-020 1.07489e-018
RightArm  -5.92811 -5.67909 75.0318
RightForeArm  64.5091 67.5099 25.3137
RightHand  -4.77906 18.6102 -28.2163
LeftUpLeg  -18.9139 -1.58227 7.51718
LeftLeg  20.8142 -6.16613 -1.89886
LeftFoot  -2.04092 0.00243445 0.146404
LeftToes  -26.3116 9.37529e-007 1.1992e-007
